# xmcd
#
# Track frame offsets:
# 150
# 12861
# 26783
# 41334
# 58515
# 74272
# 82540
# 111177
#
# Disc length: 1631 seconds
#
# Revision: 1
# Processed by: cddbd v1.5.1PL2 Copyright (c) Steve Scherf et al.
# Submitted via: Easy CD Ripper v2.37
#
DISCID=57065d08
DTITLE=Graceland Mafia - Graceland Mafia
DYEAR=2006
DGENRE=Blues
TTITLE0=Give It All You Got - Graceland Mafia
TTITLE1=One Hot Kitten - Graceland Mafia
TTITLE2=Hwy. 39 - Graceland Mafia
TTITLE3=Mr. Injustice - Graceland Mafia
TTITLE4=Demon Lover - Graceland Mafia
TTITLE5=W'out You - Graceland Mafia
TTITLE6=Spider's Web - Graceland Mafia
TTITLE7=Graceland Mafia
EXTD=
EXTT0=
EXTT1=
EXTT2=
EXTT3=
EXTT4=
EXTT5=
EXTT6=
EXTT7=
PLAYORDER=
